<svg xmlns="http://www.w3.org/2000/svg" class="wb-drawing" viewBox="-12.06 -17.8566 141.12 131.9166" data-view="plan" data-phase="p1" style="--s: 1.26">
<style>
.wb-drawing text { font-family: var(--f-mono, ui-monospace, "SF Mono", Menlo, monospace); }
.wb-drawing .f-wall { fill: color-mix(in oklab, var(--wallface, #eff2f2) var(--hl-mix, 100%), var(--hl, #000)); }
.wb-drawing .f-floor { fill: color-mix(in oklab, var(--ink, #1c2529) var(--hl-mix, 100%), var(--hl, #000)); }
.wb-drawing .f-wood { fill: color-mix(in oklab, var(--wood, #ddb987) var(--hl-mix, 100%), var(--hl, #000)); }
.wb-drawing .f-face { fill: color-mix(in oklab, var(--face, #e8cc9c) var(--hl-mix, 100%), var(--hl, #000)); }
.wb-drawing .f-hardwood { fill: color-mix(in oklab, var(--wood-dark, #a77d45) var(--hl-mix, 100%), var(--hl, #000)); }
.wb-drawing .f-mat { fill: color-mix(in oklab, var(--mat, #ddb987) var(--hl-mix, 100%), var(--hl, #000)); }
.wb-drawing .f-fixture { fill: color-mix(in oklab, var(--metal, #8d979c) var(--hl-mix, 100%), var(--hl, #000)); }
.wb-drawing .f-pine { fill: color-mix(in oklab, var(--pine, #ecdcb6) var(--hl-mix, 100%), var(--hl, #000)); }
.wb-drawing .f-metal { fill: color-mix(in oklab, var(--metal, #8d979c) var(--hl-mix, 100%), var(--hl, #000)); fill-opacity: 0.55; }
.wb-drawing .f-rod { fill: color-mix(in oklab, var(--ink-soft, #56646b) var(--hl-mix, 100%), var(--hl, #000)); }
.wb-drawing .f-cut { fill: color-mix(in oklab, var(--cut-wood, #b58c55) var(--hl-mix, 100%), var(--hl, #000)); }
.wb-drawing .f-cutwall { fill: color-mix(in oklab, var(--hatch, #8f9ba1) var(--hl-mix, 100%), var(--hl, #000)); fill-opacity: 0.25; }
.wb-drawing .f-contents { fill: color-mix(in oklab, var(--fabric-1, #8a9ca7) var(--hl-mix, 100%), var(--hl, #000)); fill-opacity: 0.16; }
.wb-drawing .f-mat-contents { fill: color-mix(in oklab, var(--mat, #8a9ca7) var(--hl-mix, 100%), var(--hl, #000)); fill-opacity: 0.9; }
.wb-drawing .hatch-ln { stroke: var(--hatch, #8f9ba1); stroke-width: calc(0.13px * var(--s, 1)); }
.wb-drawing .c-line { fill: none; stroke: color-mix(in oklab, var(--ink-soft, #56646b) var(--hl-mix, 100%), var(--hl, #000)); stroke-width: calc(0.16px * var(--s, 1) * var(--hl-w, 1)); stroke-dasharray: calc(0.8px * var(--s, 1)) calc(0.6px * var(--s, 1)); }
.wb-drawing .e { fill: none; stroke-linecap: square; stroke: color-mix(in oklab, var(--wood-dark, #a77d45) var(--hl-mix, 100%), var(--hl, #000)); stroke-width: calc(0.16px * var(--s, 1) * var(--hl-w, 1)); }
.wb-drawing .e.e-ctx { stroke: color-mix(in oklab, var(--ink, #1c2529) var(--hl-mix, 100%), var(--hl, #000)); stroke-width: calc(0.3px * var(--s, 1) * var(--hl-w, 1)); }
.wb-drawing .e.e-metal { stroke: color-mix(in oklab, var(--ink-soft, #56646b) var(--hl-mix, 100%), var(--hl, #000)); }
.wb-drawing .e.e-cut { stroke: color-mix(in oklab, var(--cut-edge, #1c2529) var(--hl-mix, 100%), var(--hl, #000)); stroke-width: calc(0.32px * var(--s, 1) * var(--hl-w, 1)); }
.wb-drawing .hid { fill: none; stroke: color-mix(in oklab, var(--ink-soft, #56646b) var(--hl-mix, 100%), var(--hl, #000)); stroke-width: calc(0.12px * var(--s, 1) * var(--hl-w, 1)); stroke-dasharray: calc(0.7px * var(--s, 1)) calc(0.45px * var(--s, 1)); }
.wb-drawing .veil { pointer-events: none; }
.wb-drawing .v-fill { fill: var(--veil, rgba(28, 37, 41, 0.08)); }
.wb-drawing .v-open { fill: none; stroke: var(--dim, #2b5d8c); stroke-width: calc(0.32px * var(--s, 1)); stroke-dasharray: calc(1.4px * var(--s, 1)) calc(0.8px * var(--s, 1)); }
.wb-drawing .dim { cursor: pointer; }
.wb-drawing .dim path { fill: none; stroke: color-mix(in oklab, var(--dim, #2b5d8c) var(--hl-mix, 100%), var(--hl, #000)); stroke-width: calc(0.18px * var(--s, 1) * var(--hl-w, 1)); }
.wb-drawing .dim text { fill: color-mix(in oklab, var(--dim, #2b5d8c) var(--hl-mix, 100%), var(--hl, #000)); font-size: calc(2.2px * var(--s, 1)); font-weight: 500; }
.wb-drawing .dim-hit { fill: transparent; stroke: none; }
.wb-drawing .lbl { fill: color-mix(in oklab, var(--ink-soft, #56646b) var(--hl-mix, 100%), var(--hl, #000)); font-size: calc(1.7px * var(--s, 1)); paint-order: stroke; stroke: var(--sheet, #fafbfb); stroke-width: calc(0.6px * var(--s, 1)); stroke-linejoin: round; }
</style>
<defs><pattern id="wbd-hatch-plan-p1" patternUnits="userSpaceOnUse" width="2.016" height="2.016" patternTransform="rotate(45)"><line class="hatch-ln" x1="0" y1="0" x2="0" y2="2.016"/></pattern></defs>
<g class="fills"><rect data-part="lower-floor" class="part k-context f-wall" x="75.5" y="0" width="46" height="37.5"/><rect data-part="flight-3-tread-4" class="part k-context f-wall" x="65.5" y="0" width="10" height="37.5"/><rect data-part="flight-3-tread-3" class="part k-context f-wall" x="55.5" y="0" width="10" height="37.5"/><rect data-part="flight-3-tread-2" class="part k-context f-wall" x="45.5" y="0" width="10" height="37.5"/><rect data-part="flight-3-tread-1" class="part k-context f-wall" x="35.5" y="0" width="10" height="37.5"/><rect data-part="landing" class="part k-context f-wall" x="0" y="0" width="35.5" height="37.5"/><rect data-part="flight-2-tread-1" class="part k-context f-wall" x="0" y="37.5" width="35.5" height="9"/><rect data-part="flight-2-tread-2" class="part k-context f-wall" x="0" y="46.5" width="35.5" height="9"/><rect data-part="planter-leg-stair" class="part k-board m-wood-legs f-mat" style="--mat:#f3f1ec" x="34" y="0" width="1.5" height="1.5"/><rect data-part="planter-leg-wall" class="part k-board m-wood-legs f-mat" style="--mat:#f3f1ec" x="0.125" y="0" width="1.5" height="1.5"/><rect data-part="planter-bottom" class="part k-panel m-ply f-wood" x="0.8125" y="0.7188" width="43.75" height="9.5938"/><rect data-part="flight-2-tread-3" class="part k-context f-wall" x="0" y="55.5" width="35.5" height="9"/><circle data-part="wicking-cup-1" class="part k-hardware f-rod" cx="11.9375" cy="5.5156" r="2"/><circle data-part="wicking-cup-2" class="part k-hardware f-rod" cx="33.4375" cy="5.5156" r="2"/><rect data-part="reservoir-grate" class="part k-hardware f-metal" x="1.1875" y="1.0938" width="43" height="8.8438"/></g>
<g class="contents"><g data-part="reservoir-water"><rect class="f-contents f-mat-contents" style="--mat:#5fa8d3" x="1.1875" y="1.0938" width="43" height="8.8438"/><rect class="c-line" x="1.1875" y="1.0938" width="43" height="8.8438"/></g><g data-part="planter-soil"><rect class="f-contents f-mat-contents" style="--mat:#6b4f3a" x="1.1875" y="1.0938" width="43" height="8.8438"/><rect class="c-line" x="1.1875" y="1.0938" width="43" height="8.8438"/></g></g>
<g class="hidden"></g>
<g class="edges"><path data-part="lower-floor" class="e e-ctx" d="M75.5 37.5H121.5M75.5 0H121.5M75.5 37.5V0M121.5 37.5V0"/><path data-part="flight-3-tread-4" class="e e-ctx" d="M65.5 37.5H75.5M65.5 0H75.5M65.5 37.5V0M75.5 37.5V0"/><path data-part="flight-3-tread-3" class="e e-ctx" d="M55.5 37.5H65.5M55.5 0H65.5M55.5 37.5V0M65.5 37.5V0"/><path data-part="flight-3-tread-2" class="e e-ctx" d="M45.5 37.5H55.5M45.5 0H55.5M45.5 37.5V0M55.5 37.5V0"/><path data-part="flight-3-tread-1" class="e e-ctx" d="M35.5 37.5H45.5M35.5 0H45.5M35.5 37.5V11M45.5 37.5V0"/><path data-part="landing" class="e e-ctx" d="M0 37.5H35.5M0 0H35.5M0 37.5V0M35.5 37.5V11"/><path data-part="flight-2-tread-1" class="e e-ctx" d="M0 46.5H35.5M0 37.5H35.5M0 46.5V37.5M35.5 46.5V37.5"/><path data-part="flight-2-tread-2" class="e e-ctx" d="M0 55.5H35.5M0 46.5H35.5M0 55.5V46.5M35.5 55.5V46.5"/><path data-part="planter-leg-stair" class="e" d="M34 0H35.5"/><path data-part="planter-leg-wall" class="e" d="M0.125 0H1.625M0.125 1.5V0"/><path data-part="planter-bottom" class="e" d="M0.8125 10.3125H44.5625M0.8125 0.7188H44.5625M0.8125 10.3125V0.7188M44.5625 10.3125V0.7188"/><path data-part="flight-2-tread-3" class="e e-ctx" d="M0 64.5H35.5M0 55.5H35.5M0 64.5V55.5M35.5 64.5V55.5"/><path data-part="reservoir-grate" class="e e-metal" d="M1.1875 9.9375H44.1875M1.1875 1.0938H44.1875M1.1875 9.9375V1.0938M44.1875 9.9375V1.0938"/></g>
<g class="cut"><rect data-part="back-wall" class="part k-context f-cutwall" x="-4.5" y="0" width="4.5" height="102"/><rect class="hatch" data-part="back-wall" x="-4.5" y="0" width="4.5" height="102" fill="url(#wbd-hatch-plan-p1)"/><circle data-part="fill-tube" class="part k-hardware f-rod" cx="2.1425" cy="2.0488" r="0.83"/><rect data-part="planter-back" class="part k-panel m-ply f-cut" x="0.8125" y="0" width="43.75" height="0.7188"/><rect data-part="planter-end-stair" class="part k-board m-wood-resawn f-cut" x="44.5625" y="0" width="0.6875" height="10.3125"/><rect data-part="planter-end-wall" class="part k-board m-wood-resawn f-cut" x="0.125" y="0" width="0.6875" height="10.3125"/><rect data-part="planter-front" class="part k-board m-wood-resawn f-cut" x="0.125" y="10.3125" width="45.125" height="0.6875"/><rect data-part="vine-wall" class="part k-context f-cutwall" x="-4.5" y="-4.5" width="49.75" height="4.5"/><rect class="hatch" data-part="vine-wall" x="-4.5" y="-4.5" width="49.75" height="4.5" fill="url(#wbd-hatch-plan-p1)"/><rect data-part="window-wall" class="part k-context f-cutwall" x="-4.5" y="102" width="126" height="4.5"/><rect class="hatch" data-part="window-wall" x="-4.5" y="102" width="126" height="4.5" fill="url(#wbd-hatch-plan-p1)"/><path data-part="back-wall" class="e e-cut" d="M-4.5 102H0M-4.5 0H0M-4.5 102V0M0 102V0"/><circle data-part="fill-tube" class="e e-cut" cx="2.1425" cy="2.0488" r="0.83"/><path data-part="planter-back" class="e e-cut" d="M0.8125 0.7188H44.5625M0.8125 0H44.5625M0.8125 0.7188V0M44.5625 0.7188V0"/><path data-part="planter-end-stair" class="e e-cut" d="M44.5625 10.3125H45.25M44.5625 0H45.25M44.5625 10.3125V0M45.25 10.3125V0"/><path data-part="planter-end-wall" class="e e-cut" d="M0.125 10.3125H0.8125M0.125 0H0.8125M0.125 10.3125V0M0.8125 10.3125V0"/><path data-part="planter-front" class="e e-cut" d="M0.125 11H45.25M0.125 10.3125H45.25M0.125 11V10.3125M45.25 11V10.3125"/><path data-part="vine-wall" class="e e-cut" d="M-4.5 0H45.25M-4.5 -4.5H45.25M-4.5 0V-4.5M45.25 0V-4.5"/><path data-part="window-wall" class="e e-cut" d="M-4.5 106.5H121.5M-4.5 102H121.5M-4.5 106.5V102M121.5 106.5V102"/></g>
<g class="veil"></g>
<g class="dims"><g class="dim" data-part="back-wall vine-wall" data-dim="plan:0"><rect class="dim-hit" x="-1.764" y="-10.2966" width="48.778" height="6.0606"/><path d="M0 -6H45.25M-1.008 -4.992L1.008 -7.008M44.242 -4.992L46.258 -7.008M0 -7.764V-4.236M45.25 -7.764V-4.236"/><text x="22.625" y="-7.134" text-anchor="middle">45¼</text></g><g class="dim" data-part="vine-wall planter-front" data-dim="plan:1"><rect class="dim-hit" x="1.7034" y="-1.764" width="6.0606" height="14.528"/><path d="M6 0V11M4.992 1.008L7.008 -1.008M4.992 12.008L7.008 9.992M4.236 0H7.764M4.236 11H7.764"/><text x="4.866" y="5.5" text-anchor="middle" transform="rotate(-90 4.866 5.5)">11</text></g></g>
<g class="labels"></g>
</svg>
