<svg xmlns="http://www.w3.org/2000/svg" class="wb-drawing" viewBox="-62.05 -178.8 150.6 229.6" data-view="stair-section" data-phase="p1" style="--s: 2.05">
<style>
.wb-drawing text { font-family: var(--f-mono, ui-monospace, "SF Mono", Menlo, monospace); }
.wb-drawing .f-wall { fill: color-mix(in oklab, var(--wallface, #eff2f2) var(--hl-mix, 100%), var(--hl, #000)); }
.wb-drawing .f-floor { fill: color-mix(in oklab, var(--ink, #1c2529) var(--hl-mix, 100%), var(--hl, #000)); }
.wb-drawing .f-wood { fill: color-mix(in oklab, var(--wood, #ddb987) var(--hl-mix, 100%), var(--hl, #000)); }
.wb-drawing .f-face { fill: color-mix(in oklab, var(--face, #e8cc9c) var(--hl-mix, 100%), var(--hl, #000)); }
.wb-drawing .f-hardwood { fill: color-mix(in oklab, var(--wood-dark, #a77d45) var(--hl-mix, 100%), var(--hl, #000)); }
.wb-drawing .f-pine { fill: color-mix(in oklab, var(--pine, #ecdcb6) var(--hl-mix, 100%), var(--hl, #000)); }
.wb-drawing .f-metal { fill: color-mix(in oklab, var(--metal, #8d979c) var(--hl-mix, 100%), var(--hl, #000)); fill-opacity: 0.55; }
.wb-drawing .f-rod { fill: color-mix(in oklab, var(--ink-soft, #56646b) var(--hl-mix, 100%), var(--hl, #000)); }
.wb-drawing .f-cut { fill: color-mix(in oklab, var(--cut-wood, #b58c55) var(--hl-mix, 100%), var(--hl, #000)); }
.wb-drawing .f-cutwall { fill: color-mix(in oklab, var(--hatch, #8f9ba1) var(--hl-mix, 100%), var(--hl, #000)); fill-opacity: 0.25; }
.wb-drawing .f-contents { fill: color-mix(in oklab, var(--fabric-1, #8a9ca7) var(--hl-mix, 100%), var(--hl, #000)); fill-opacity: 0.16; }
.wb-drawing .hatch-ln { stroke: var(--hatch, #8f9ba1); stroke-width: calc(0.13px * var(--s, 1)); }
.wb-drawing .c-line { fill: none; stroke: color-mix(in oklab, var(--ink-soft, #56646b) var(--hl-mix, 100%), var(--hl, #000)); stroke-width: calc(0.16px * var(--s, 1) * var(--hl-w, 1)); stroke-dasharray: calc(0.8px * var(--s, 1)) calc(0.6px * var(--s, 1)); }
.wb-drawing .e { fill: none; stroke-linecap: square; stroke: color-mix(in oklab, var(--wood-dark, #a77d45) var(--hl-mix, 100%), var(--hl, #000)); stroke-width: calc(0.16px * var(--s, 1) * var(--hl-w, 1)); }
.wb-drawing .e.e-ctx { stroke: color-mix(in oklab, var(--ink, #1c2529) var(--hl-mix, 100%), var(--hl, #000)); stroke-width: calc(0.3px * var(--s, 1) * var(--hl-w, 1)); }
.wb-drawing .e.e-metal { stroke: color-mix(in oklab, var(--ink-soft, #56646b) var(--hl-mix, 100%), var(--hl, #000)); }
.wb-drawing .e.e-cut { stroke: color-mix(in oklab, var(--cut-edge, #1c2529) var(--hl-mix, 100%), var(--hl, #000)); stroke-width: calc(0.32px * var(--s, 1) * var(--hl-w, 1)); }
.wb-drawing .hid { fill: none; stroke: color-mix(in oklab, var(--ink-soft, #56646b) var(--hl-mix, 100%), var(--hl, #000)); stroke-width: calc(0.12px * var(--s, 1) * var(--hl-w, 1)); stroke-dasharray: calc(0.7px * var(--s, 1)) calc(0.45px * var(--s, 1)); }
.wb-drawing .veil { pointer-events: none; }
.wb-drawing .v-fill { fill: var(--veil, rgba(28, 37, 41, 0.08)); }
.wb-drawing .v-open { fill: none; stroke: var(--dim, #2b5d8c); stroke-width: calc(0.32px * var(--s, 1)); stroke-dasharray: calc(1.4px * var(--s, 1)) calc(0.8px * var(--s, 1)); }
.wb-drawing .dim { cursor: pointer; }
.wb-drawing .dim path { fill: none; stroke: color-mix(in oklab, var(--dim, #2b5d8c) var(--hl-mix, 100%), var(--hl, #000)); stroke-width: calc(0.18px * var(--s, 1) * var(--hl-w, 1)); }
.wb-drawing .dim text { fill: color-mix(in oklab, var(--dim, #2b5d8c) var(--hl-mix, 100%), var(--hl, #000)); font-size: calc(2.2px * var(--s, 1)); font-weight: 500; }
.wb-drawing .dim-hit { fill: transparent; stroke: none; }
.wb-drawing .lbl { fill: color-mix(in oklab, var(--ink-soft, #56646b) var(--hl-mix, 100%), var(--hl, #000)); font-size: calc(1.7px * var(--s, 1)); paint-order: stroke; stroke: var(--sheet, #fafbfb); stroke-width: calc(0.6px * var(--s, 1)); stroke-linejoin: round; }
</style>
<defs><pattern id="wbd-hatch-stair-section-p1" patternUnits="userSpaceOnUse" width="3.28" height="3.28" patternTransform="rotate(45)"><line class="hatch-ln" x1="0" y1="0" x2="0" y2="3.28"/></pattern></defs>
<g class="fills"><rect data-part="window-wall" class="part k-context f-wall" x="-49.75" y="-165" width="126" height="202.5"/><rect data-part="flight-1-tread-1" class="part k-context f-floor" x="-9.75" y="-37.5" width="10" height="1.5"/><rect data-part="flight-1-tread-2" class="part k-context f-floor" x="0.25" y="-45" width="10" height="1.5"/><rect data-part="flight-1-tread-3" class="part k-context f-floor" x="10.25" y="-52.5" width="10" height="1.5"/><rect data-part="flight-1-tread-4" class="part k-context f-floor" x="20.25" y="-60" width="10" height="1.5"/><rect data-part="flight-1-tread-5" class="part k-context f-floor" x="30.25" y="-67.5" width="10" height="1.5"/><rect data-part="landing-1" class="part k-context f-floor" x="-45.25" y="-30" width="35.5" height="1.5"/><rect data-part="flight-2-tread-3" class="part k-context f-floor" x="-45.25" y="-22.5" width="35.5" height="1.5"/><rect data-part="flight-2-tread-2" class="part k-context f-floor" x="-45.25" y="-15" width="35.5" height="1.5"/><rect data-part="flight-2-tread-1" class="part k-context f-floor" x="-45.25" y="-7.5" width="35.5" height="1.5"/></g>
<g class="contents"></g>
<g class="hidden"></g>
<g class="edges"><path data-part="window-wall" class="e e-ctx" d="M-49.75 37.5H76.25M-49.75 -165H76.25M-49.75 37.5V-165M76.25 37.5V-165"/><path data-part="flight-1-tread-1" class="e e-ctx" d="M-9.75 -36H0.25M-9.75 -37.5H0.25M-9.75 -36V-37.5M0.25 -36V-37.5"/><path data-part="flight-1-tread-2" class="e e-ctx" d="M0.25 -43.5H10.25M0.25 -45H10.25M0.25 -43.5V-45M10.25 -43.5V-45"/><path data-part="flight-1-tread-3" class="e e-ctx" d="M10.25 -51H20.25M10.25 -52.5H20.25M10.25 -51V-52.5M20.25 -51V-52.5"/><path data-part="flight-1-tread-4" class="e e-ctx" d="M20.25 -58.5H30.25M20.25 -60H30.25M20.25 -58.5V-60M30.25 -58.5V-60"/><path data-part="flight-1-tread-5" class="e e-ctx" d="M30.25 -66H40.25M30.25 -67.5H40.25M30.25 -66V-67.5M40.25 -66V-67.5"/><path data-part="landing-1" class="e e-ctx" d="M-45.25 -28.5H-9.75M-45.25 -30H-9.75M-45.25 -28.5V-30M-9.75 -28.5V-30"/><path data-part="flight-2-tread-3" class="e e-ctx" d="M-45.25 -21H-9.75M-45.25 -22.5H-9.75M-45.25 -21V-22.5M-9.75 -21V-22.5"/><path data-part="flight-2-tread-2" class="e e-ctx" d="M-45.25 -13.5H-9.75M-45.25 -15H-9.75M-45.25 -13.5V-15M-9.75 -13.5V-15"/><path data-part="flight-2-tread-1" class="e e-ctx" d="M-45.25 -6H-9.75M-45.25 -7.5H-9.75M-45.25 -6V-7.5M-9.75 -6V-7.5"/></g>
<g class="cut"><rect data-part="back-wall" class="part k-context f-cutwall" x="-49.75" y="-165" width="4.5" height="202.5"/><rect class="hatch" data-part="back-wall" x="-49.75" y="-165" width="4.5" height="202.5" fill="url(#wbd-hatch-stair-section-p1)"/><rect data-part="ceiling" class="part k-context f-cutwall" x="-49.75" y="-166.5" width="126" height="1.5"/><rect class="hatch" data-part="ceiling" x="-49.75" y="-166.5" width="126" height="1.5" fill="url(#wbd-hatch-stair-section-p1)"/><rect data-part="flight-3-tread-1" class="part k-context f-cutwall" x="-9.75" y="7.5" width="10" height="1.5"/><rect class="hatch" data-part="flight-3-tread-1" x="-9.75" y="7.5" width="10" height="1.5" fill="url(#wbd-hatch-stair-section-p1)"/><rect data-part="flight-3-tread-2" class="part k-context f-cutwall" x="0.25" y="15" width="10" height="1.5"/><rect class="hatch" data-part="flight-3-tread-2" x="0.25" y="15" width="10" height="1.5" fill="url(#wbd-hatch-stair-section-p1)"/><rect data-part="flight-3-tread-3" class="part k-context f-cutwall" x="10.25" y="22.5" width="10" height="1.5"/><rect class="hatch" data-part="flight-3-tread-3" x="10.25" y="22.5" width="10" height="1.5" fill="url(#wbd-hatch-stair-section-p1)"/><rect data-part="flight-3-tread-4" class="part k-context f-cutwall" x="20.25" y="30" width="10" height="1.5"/><rect class="hatch" data-part="flight-3-tread-4" x="20.25" y="30" width="10" height="1.5" fill="url(#wbd-hatch-stair-section-p1)"/><rect data-part="landing" class="part k-context f-cutwall" x="-45.25" y="0" width="35.5" height="1.5"/><rect class="hatch" data-part="landing" x="-45.25" y="0" width="35.5" height="1.5" fill="url(#wbd-hatch-stair-section-p1)"/><rect data-part="lower-floor" class="part k-context f-cutwall" x="30.25" y="37.5" width="46" height="1"/><rect class="hatch" data-part="lower-floor" x="30.25" y="37.5" width="46" height="1" fill="url(#wbd-hatch-stair-section-p1)"/><rect data-part="upper-floor" class="part k-context f-cutwall" x="40.25" y="-75" width="36" height="1"/><rect class="hatch" data-part="upper-floor" x="40.25" y="-75" width="36" height="1" fill="url(#wbd-hatch-stair-section-p1)"/><path data-part="back-wall" class="e e-cut" d="M-49.75 37.5H-45.25M-49.75 -165H-45.25M-49.75 37.5V-165M-45.25 37.5V-165"/><path data-part="ceiling" class="e e-cut" d="M-49.75 -165H76.25M-49.75 -166.5H76.25M-49.75 -165V-166.5M76.25 -165V-166.5"/><path data-part="flight-3-tread-1" class="e e-cut" d="M-9.75 9H0.25M-9.75 7.5H0.25M-9.75 9V7.5M0.25 9V7.5"/><path data-part="flight-3-tread-2" class="e e-cut" d="M0.25 16.5H10.25M0.25 15H10.25M0.25 16.5V15M10.25 16.5V15"/><path data-part="flight-3-tread-3" class="e e-cut" d="M10.25 24H20.25M10.25 22.5H20.25M10.25 24V22.5M20.25 24V22.5"/><path data-part="flight-3-tread-4" class="e e-cut" d="M20.25 31.5H30.25M20.25 30H30.25M20.25 31.5V30M30.25 31.5V30"/><path data-part="landing" class="e e-cut" d="M-45.25 1.5H-9.75M-45.25 0H-9.75M-45.25 1.5V0M-9.75 1.5V0"/><path data-part="lower-floor" class="e e-cut" d="M30.25 38.5H76.25M30.25 37.5H76.25M30.25 38.5V37.5M76.25 38.5V37.5"/><path data-part="upper-floor" class="e e-cut" d="M40.25 -74H76.25M40.25 -75H76.25M40.25 -74V-75M76.25 -74V-75"/></g>
<g class="veil"></g>
<g class="dims"></g>
<g class="labels"></g>
</svg>
