<svg xmlns="http://www.w3.org/2000/svg" class="wb-drawing" viewBox="-7.755 -11.1049 60.76 49.8599" data-view="plan" data-phase="p1" style="--s: 0.5425">
<style>
.wb-drawing text { font-family: var(--f-mono, ui-monospace, "SF Mono", Menlo, monospace); }
.wb-drawing .f-wall { fill: color-mix(in oklab, var(--wallface, #eff2f2) var(--hl-mix, 100%), var(--hl, #000)); }
.wb-drawing .f-floor { fill: color-mix(in oklab, var(--ink, #1c2529) var(--hl-mix, 100%), var(--hl, #000)); }
.wb-drawing .f-wood { fill: color-mix(in oklab, var(--wood, #ddb987) var(--hl-mix, 100%), var(--hl, #000)); }
.wb-drawing .f-face { fill: color-mix(in oklab, var(--face, #e8cc9c) var(--hl-mix, 100%), var(--hl, #000)); }
.wb-drawing .f-hardwood { fill: color-mix(in oklab, var(--wood-dark, #a77d45) var(--hl-mix, 100%), var(--hl, #000)); }
.wb-drawing .f-pine { fill: color-mix(in oklab, var(--pine, #ecdcb6) var(--hl-mix, 100%), var(--hl, #000)); }
.wb-drawing .f-metal { fill: color-mix(in oklab, var(--metal, #8d979c) var(--hl-mix, 100%), var(--hl, #000)); fill-opacity: 0.55; }
.wb-drawing .f-rod { fill: color-mix(in oklab, var(--ink-soft, #56646b) var(--hl-mix, 100%), var(--hl, #000)); }
.wb-drawing .f-cut { fill: color-mix(in oklab, var(--cut-wood, #b58c55) var(--hl-mix, 100%), var(--hl, #000)); }
.wb-drawing .f-cutwall { fill: color-mix(in oklab, var(--hatch, #8f9ba1) var(--hl-mix, 100%), var(--hl, #000)); fill-opacity: 0.25; }
.wb-drawing .f-contents { fill: color-mix(in oklab, var(--fabric-1, #8a9ca7) var(--hl-mix, 100%), var(--hl, #000)); fill-opacity: 0.16; }
.wb-drawing .hatch-ln { stroke: var(--hatch, #8f9ba1); stroke-width: calc(0.13px * var(--s, 1)); }
.wb-drawing .c-line { fill: none; stroke: color-mix(in oklab, var(--ink-soft, #56646b) var(--hl-mix, 100%), var(--hl, #000)); stroke-width: calc(0.16px * var(--s, 1) * var(--hl-w, 1)); stroke-dasharray: calc(0.8px * var(--s, 1)) calc(0.6px * var(--s, 1)); }
.wb-drawing .e { fill: none; stroke-linecap: square; stroke: color-mix(in oklab, var(--wood-dark, #a77d45) var(--hl-mix, 100%), var(--hl, #000)); stroke-width: calc(0.16px * var(--s, 1) * var(--hl-w, 1)); }
.wb-drawing .e.e-ctx { stroke: color-mix(in oklab, var(--ink, #1c2529) var(--hl-mix, 100%), var(--hl, #000)); stroke-width: calc(0.3px * var(--s, 1) * var(--hl-w, 1)); }
.wb-drawing .e.e-metal { stroke: color-mix(in oklab, var(--ink-soft, #56646b) var(--hl-mix, 100%), var(--hl, #000)); }
.wb-drawing .e.e-cut { stroke: color-mix(in oklab, var(--cut-edge, #1c2529) var(--hl-mix, 100%), var(--hl, #000)); stroke-width: calc(0.32px * var(--s, 1) * var(--hl-w, 1)); }
.wb-drawing .hid { fill: none; stroke: color-mix(in oklab, var(--ink-soft, #56646b) var(--hl-mix, 100%), var(--hl, #000)); stroke-width: calc(0.12px * var(--s, 1) * var(--hl-w, 1)); stroke-dasharray: calc(0.7px * var(--s, 1)) calc(0.45px * var(--s, 1)); }
.wb-drawing .veil { pointer-events: none; }
.wb-drawing .v-fill { fill: var(--veil, rgba(28, 37, 41, 0.08)); }
.wb-drawing .v-open { fill: none; stroke: var(--dim, #2b5d8c); stroke-width: calc(0.32px * var(--s, 1)); stroke-dasharray: calc(1.4px * var(--s, 1)) calc(0.8px * var(--s, 1)); }
.wb-drawing .dim { cursor: pointer; }
.wb-drawing .dim path { fill: none; stroke: color-mix(in oklab, var(--dim, #2b5d8c) var(--hl-mix, 100%), var(--hl, #000)); stroke-width: calc(0.18px * var(--s, 1) * var(--hl-w, 1)); }
.wb-drawing .dim text { fill: color-mix(in oklab, var(--dim, #2b5d8c) var(--hl-mix, 100%), var(--hl, #000)); font-size: calc(2.2px * var(--s, 1)); font-weight: 500; }
.wb-drawing .dim-hit { fill: transparent; stroke: none; }
.wb-drawing .lbl { fill: color-mix(in oklab, var(--ink-soft, #56646b) var(--hl-mix, 100%), var(--hl, #000)); font-size: calc(1.7px * var(--s, 1)); paint-order: stroke; stroke: var(--sheet, #fafbfb); stroke-width: calc(0.6px * var(--s, 1)); stroke-linejoin: round; }
</style>
<defs><pattern id="wbd-hatch-plan-p1" patternUnits="userSpaceOnUse" width="0.868" height="0.868" patternTransform="rotate(45)"><line class="hatch-ln" x1="0" y1="0" x2="0" y2="0.868"/></pattern></defs>
<g class="fills"><rect data-part="landing" class="part k-context f-wall" x="-4.5" y="-4.5" width="42" height="40"/><rect data-part="planter-bottom" class="part k-panel m-ply f-wood" x="0.8438" y="0.7188" width="35.8125" height="7.5625"/></g>
<g class="contents"></g>
<g class="hidden"></g>
<g class="edges"><path data-part="landing" class="e e-ctx" d="M-4.5 35.5H37.5M-4.5 -4.5H37.5M-4.5 35.5V-4.5M37.5 35.5V0"/><path data-part="planter-bottom" class="e" d="M0.8438 8.2813H36.6563M0.8438 0.7188H36.6563M0.8438 8.2813V0.7188M36.6563 8.2813V0.7188"/></g>
<g class="cut"><rect data-part="planter-back" class="part k-panel m-ply f-cut" x="0.125" y="0" width="37.25" height="0.7188"/><rect data-part="planter-end-left" class="part k-panel m-ply f-cut" x="0.125" y="0.7188" width="0.7188" height="7.5625"/><rect data-part="planter-end-right" class="part k-panel m-ply f-cut" x="36.6563" y="0.7188" width="0.7188" height="7.5625"/><rect data-part="planter-front" class="part k-panel m-ply f-cut" x="0.125" y="8.2813" width="37.25" height="0.7188"/><rect data-part="planter-liner" class="part k-hardware f-metal" x="1.0938" y="0.9688" width="35.3125" height="7.0625"/><rect data-part="vine-wall" class="part k-context f-cutwall" x="-4.5" y="-4.5" width="54.25" height="4.5"/><rect class="hatch" data-part="vine-wall" x="-4.5" y="-4.5" width="54.25" height="4.5" fill="url(#wbd-hatch-plan-p1)"/><rect data-part="wall-left" class="part k-context f-cutwall" x="-4.5" y="0" width="4.5" height="35.5"/><rect class="hatch" data-part="wall-left" x="-4.5" y="0" width="4.5" height="35.5" fill="url(#wbd-hatch-plan-p1)"/><rect data-part="wall-right" class="part k-context f-cutwall" x="45.25" y="0" width="4.5" height="35.5"/><rect class="hatch" data-part="wall-right" x="45.25" y="0" width="4.5" height="35.5" fill="url(#wbd-hatch-plan-p1)"/><path data-part="planter-back" class="e e-cut" d="M0.125 0.7188H37.375M0.125 0H37.375M0.125 0.7188V0M37.375 0.7188V0"/><path data-part="planter-end-left" class="e e-cut" d="M0.125 8.2813H0.8438M0.125 0.7188H0.8438M0.125 8.2813V0.7188M0.8438 8.2813V0.7188"/><path data-part="planter-end-right" class="e e-cut" d="M36.6563 8.2813H37.375M36.6563 0.7188H37.375M36.6563 8.2813V0.7188M37.375 8.2813V0.7188"/><path data-part="planter-front" class="e e-cut" d="M0.125 9H37.375M0.125 8.2813H37.375M0.125 9V8.2813M37.375 9V8.2813"/><path data-part="planter-liner" class="e e-cut" d="M1.0938 8.0313H36.4063M1.0938 0.9688H36.4063M1.0938 8.0313V0.9688M36.4063 8.0313V0.9688"/><path data-part="vine-wall" class="e e-cut" d="M-4.5 0H49.75M-4.5 -4.5H49.75M-4.5 0V-4.5M49.75 0V-4.5"/><path data-part="wall-left" class="e e-cut" d="M-4.5 35.5H0M-4.5 0H0M-4.5 35.5V0M0 35.5V0"/><path data-part="wall-right" class="e e-cut" d="M45.25 35.5H49.75M45.25 0H49.75M45.25 35.5V0M49.75 35.5V0"/></g>
<g class="veil"></g>
<g class="dims"><g class="dim" data-part="wall-left wall-right" data-dim="plan:0"><rect class="dim-hit" x="-0.7595" y="-7.8499" width="46.769" height="2.6094"/><path d="M0 -6H45.25M-0.434 -5.566L0.434 -6.434M44.816 -5.566L45.684 -6.434M0 -6.7595V-5.2405M45.25 -6.7595V-5.2405"/><text x="22.625" y="-6.4882" text-anchor="middle">45¼</text></g><g class="dim" data-part="vine-wall planter-front" data-dim="plan:1"><rect class="dim-hit" x="4.1501" y="-0.7595" width="2.6094" height="10.519"/><path d="M6 0V9M5.566 0.434L6.434 -0.434M5.566 9.434L6.434 8.566M5.2405 0H6.7595M5.2405 9H6.7595"/><text x="5.5118" y="4.5" text-anchor="middle" transform="rotate(-90 5.5118 4.5)">9</text></g></g>
<g class="labels"></g>
</svg>
